<?xml version="1.0" encoding="utf-8"?>
<!-- Generator: Adobe Illustrator 16.0.0, SVG Export Plug-In . SVG Version: 6.00 Build 0)  -->
<!DOCTYPE svg PUBLIC "-//W3C//DTD SVG 1.1//EN" "http://www.w3.org/Graphics/SVG/1.1/DTD/svg11.dtd">
<svg version="1.1" id="Camada_1" xmlns="http://www.w3.org/2000/svg" xmlns:xlink="http://www.w3.org/1999/xlink" x="0px" y="0px"
	 width="292px" height="293px" viewBox="0 0 292 293" enable-background="new 0 0 292 293" xml:space="preserve">
<path fill="#FFFFFF" d="M122.555,120.342l-12.321-12.321c-6.804,34.163-21.942,71.08-44.504,107.505
	c-1.823,2.919,2.061,6.001,4.487,3.574l57.332-57.332C115.793,149.852,113.896,132.195,122.555,120.342z"/>
<g>
	<path fill="#FFFFFF" d="M218.343,77.29c-18.484,31.376-31.758,63.498-38.751,93.773l-9.056-9.055
		c10.823-12.888,13.229-30.211,5.959-42.872L218.343,77.29 M223.999,67.11c-0.685,0-1.393,0.261-2.006,0.875l-50.619,50.619
		c8.927,12.02,6.451,30.707-6.37,43.527l-0.001,0l16.954,16.953c6.821-34.182,21.961-71.099,44.522-107.524
		C227.842,69.38,226.019,67.11,223.999,67.11L223.999,67.11z"/>
</g>
<path fill="#FFFFFF" d="M247.249,42.742c-55.668-55.668-145.936-55.649-201.604,0.019c-55.667,55.668-55.668,145.917,0,201.585
	c55.667,55.668,145.936,55.687,201.603,0.019C302.917,188.696,302.917,98.409,247.249,42.742 M57.41,232.581
	c-49.174-49.174-49.193-128.9-0.019-178.074C106.565,5.332,186.292,5.35,235.467,54.524c49.174,49.174,49.173,128.882-0.002,178.057
	C186.291,281.755,106.583,281.755,57.41,232.581"/>
<path fill="#FFFFFF" d="M144.979,144.691l-16.626,16.626c-9.813-9.812-9.795-25.735,0-35.53l17.766,17.766L144.979,144.691"/>
<path fill="#FFFFFF" d="M146.875,143.553l17.765-17.766c9.814,9.813,9.814,25.718,0,35.531L146.875,143.553"/>
</svg>
